# xmcd
#
# Track frame offsets:
#        150
#        24580
#        41916
#        56438
#        84914
#        102900
#        123024
#
# Disc length: 1841 seconds
#
# Revision: 0
# Processed by: cddbd v1.5.1PL0 Copyright (c) Steve Scherf et al.
# Submitted via: ExactAudioCopy v0.95a5
#
DISCID=4d072f07
DTITLE=The Bird - The Bird
DYEAR=2005
DGENRE=Pop
TTITLE0=The Bird All Stars
TTITLE1=Fethers And Tears
TTITLE2=Father's Sky
TTITLE3=Liquid Nector Tribe
TTITLE4=The Bird
TTITLE5=Fly Over The Rainbow
TTITLE6=Blue Bird(Can you hear me?)
EXTD=
EXTT0=
EXTT1=
EXTT2=
EXTT3=
EXTT4=
EXTT5=
EXTT6=
PLAYORDER=
